<?xml version="1.0" encoding="UTF-8" standalone="no"?>
<svg
   id="Ebene_1"
   data-name="Ebene 1"
   viewBox="0 0 64 64"
   version="1.1"
   xmlns="http://www.w3.org/2000/svg"
   xmlns:svg="http://www.w3.org/2000/svg">
  <defs>
  </defs>
  <path
     d="m 49.85,19.93 -3,3 a 1.72,1.72 0 0 1 -2.43,0 l -3,-3 a 1.72,1.72 0 0 1 0,-2.43 l 3,-3 a 1.72,1.72 0 0 1 2.43,0 l 3,3 a 1.72,1.72 0 0 1 0,2.43 M 36.49,45.28 A 4.49,4.49 0 1 1 32,40.8 4.49,4.49 0 0 1 36.49,45.28 M 30,27.59 l 5.42,3.29 a 1.17,1.17 0 0 1 0,2.18 L 30,36.35 c -1,0.6 -1.79,0.15 -1.79,-1 V 28.6 c 0,-1.16 0.8,-1.61 1.79,-1 m 6.54,-8.87 a 4.49,4.49 0 1 1 -4.54,-4.5 4.49,4.49 0 0 1 4.49,4.49 m -13.85,27.78 -3,3 a 1.72,1.72 0 0 1 -2.43,0 l -3,-3 a 1.72,1.72 0 0 1 0,-2.43 l 3,-3 a 1.72,1.72 0 0 1 2.43,0 l 3,3 a 1.72,1.72 0 0 1 0,2.43 m 0,-12.18 A 1.88,1.88 0 0 1 20.76,36.2 H 16 a 1.88,1.88 0 0 1 -1.88,-1.88 v -4.7 A 1.88,1.88 0 0 1 16,27.74 h 4.71 a 1.88,1.88 0 0 1 1.88,1.88 z m -1,-14.52 -5.42,3.3 c -1,0.6 -1.79,0.15 -1.79,-1 v -6.75 c 0,-1.16 0.8,-1.62 1.79,-1 l 5.42,3.3 a 1.16,1.16 0 0 1 0,2.17 m 19.74,9.82 a 1.88,1.88 0 0 1 1.88,-1.88 H 48 a 1.88,1.88 0 0 1 1.88,1.88 v 4.7 A 1.88,1.88 0 0 1 48,36.2 H 43.25 A 1.88,1.88 0 0 1 41.37,34.32 Z M 63.51,32 A 31.51,31.51 0 1 0 32,63.51 31.51,31.51 0 0 0 63.51,32"
     style="fill:#002f3b" />
  <path d="m 43.42,40.54 c -1,-0.6 -1.79,-0.14 -1.79,1 v 6.76 c 0,1.16 0.8,1.61 1.79,1 L 48.84,46 a 1.16,1.16 0 0 0 0,-2.17 z" style="fill:#dec848" />
</svg>
